# This file uses centimeters as units for non-parametric coordinates.

mtllib Body.mtl
g default
v 0.055468 -1.025332 0.825229
v 0.055468 1.608353 -2.100367
v -0.286308 0.001355 -0.225119
v -0.457651 0.001355 -0.718575
v 0.568587 0.001355 -0.718575
v 0.397245 0.001355 -0.225119
v 0.068284 0.633674 0.165654
v 0.067303 0.610402 -1.374452
v 0.391766 -0.352441 -0.186580
v 0.062938 -0.673793 -0.149243
v -0.256370 -0.401383 -0.112989
v 0.059298 1.199111 -1.576310
v -0.107898 1.425102 -1.421416
v -0.031674 1.678300 -1.339405
v 0.058306 1.477110 -1.182194
v 0.152918 1.674699 -1.356862
v 0.208376 1.446546 -1.432002
vt 0.500000 0.000000
vt 0.500000 0.250000
vt 0.500000 0.500000
vt 0.500000 0.750000
vt 0.375000 0.126609
vt 0.125000 0.126609
vt 0.375000 0.623391
vt 0.625000 0.623391
vt 0.875000 0.126609
vt 0.625000 0.126609
vt 0.503122 0.126609
vt 0.502883 0.623391
vt 0.581925 0.667020
vt 0.745775 0.082980
vt 0.501820 0.670082
vt 0.272101 0.076944
vt 0.424034 0.673056
vt 0.500933 0.539929
vt 0.436204 0.229008
vt 0.478735 0.520992
vt 0.478915 0.229187
vt 0.500691 0.222679
vt 0.519457 0.230794
vt 0.519703 0.519449
vt 0.559109 0.230551
vn 0.759281 0.576091 0.302675
vn 0.039895 0.689850 0.722853
vn -0.000452 0.989938 0.141503
vn 0.767573 -0.206921 -0.606642
vn 0.014186 -0.615202 -0.788242
vn 0.018805 -0.787948 -0.615455
vn -0.735738 -0.229840 -0.637074
vn 0.953132 0.290915 0.083116
vn 0.964719 0.255469 -0.063670
vn 0.948415 0.279696 -0.149265
vn -0.956051 0.292795 -0.015380
vn -0.943808 0.313021 0.106039
vn -0.935381 0.325992 -0.137081
vn -0.893882 0.329081 0.304435
vn -0.944461 0.021099 0.327945
vn -0.927002 0.192507 0.321882
vn -0.944461 0.021099 0.327945
vn -0.893989 0.304824 0.328428
vn -0.020534 0.369504 0.929002
vn 0.002873 0.573245 0.819379
vn 0.944461 0.021099 0.327945
vn 0.944461 0.021099 0.327945
vn 0.927720 0.188590 0.322132
vn 0.894026 0.328793 0.304322
vn 0.662113 -0.706542 -0.249808
vn 0.020028 -0.852157 -0.522903
vn 0.222101 -0.646574 -0.729804
vn 0.015793 -0.409943 -0.911974
vn 0.906703 0.288330 0.307822
vn -0.715643 0.622575 0.316632
vn -0.220074 -0.647270 -0.729801
vn -0.643152 -0.718715 -0.264206
vn 0.015386 -0.940589 -0.339198
s 1
g pCube1
usemtl initialShadingGroup
f 14//1 15//2 2//3
s 2
f 17//4 12//5 2//6
f 12//5 13//7 2//6
s 3
f 16//8 17//9 2//10
s 4
f 13//11 14//12 2//13
f 4//14 11//15 3//16
f 3//16 11//15 1//17
s 1
f 3//18 1//19 7//20
s 3
f 1//21 9//22 6//23
f 6//23 9//22 5//24
s 2
f 9//25 10//26 5//27
f 5//27 10//26 8//28
s 1
f 7//20 1//19 6//29
f 2//3 15//2 16//30
s 2
f 8//28 10//26 4//31
f 4//31 10//26 11//32
f 10//26 9//25 1//33
f 11//32 10//26 1//33
f 4//31 13//7 8//28
f 8//28 13//7 12//5
s 4
f 3//16 14//12 4//14
f 4//14 14//12 13//11
s 1
f 7//20 15//2 3//18
f 3//18 15//2 14//1
f 16//30 15//2 6//29
f 6//29 15//2 7//20
s 3
f 6//23 5//24 16//8
f 16//8 5//24 17//9
s 2
f 5//27 8//28 17//4
f 17//4 8//28 12//5
