# This file uses centimeters as units for non-parametric coordinates.

mtllib Wing.mtl
g default
v -0.011291 0.280265 -0.178317
v -0.005253 0.003333 0.002195
v 0.469398 0.537209 -0.228012
v 0.478760 0.107802 0.051890
v 0.866250 0.375671 -0.228012
v 0.840261 -0.224820 0.177396
v 1.296514 0.262705 -0.228012
v 1.304284 -0.004102 -0.057824
v -0.008802 0.166109 -0.068938
v 0.479678 0.380278 -0.021795
v 0.904748 0.161669 0.044252
v 1.313301 0.159335 -0.061048
v 1.548962 0.179528 -0.162994
v -0.008186 0.137845 -0.121447
v 1.711921 0.328482 -0.232928
v 1.702151 0.344670 -0.260775
v 1.714534 0.303789 -0.234163
vt 0.500000 0.250000
vt 0.500000 0.500000
vt 0.875000 0.250000
vt 0.125000 0.250000
vt 0.500000 0.174350
vt 0.125000 0.174350
vt 0.875000 0.174350
vt 0.500000 0.112109
vt 0.125000 0.112109
vt 0.875000 0.112109
vt 0.500000 0.044628
vt 0.125000 0.044628
vt 0.875000 0.044628
vt 0.257509 0.250000
vt 0.433745 0.367491
vt 0.257509 0.174350
vt 0.257509 0.112109
vt 0.257509 0.044628
vt 0.312500 0.022314
vt 0.687500 0.022314
vt 0.568139 0.363722
vt 0.738722 0.250000
vt 0.458746 0.007592
vt 0.500000 0.008213
vt 0.439381 0.007214
vt 0.560619 0.007214
vn -0.999762 -0.021797 -0.000000
vn -0.999762 -0.021797 -0.000000
vn -0.999762 -0.021797 -0.000000
vn -0.999762 -0.021797 -0.000000
vn -0.140839 -0.546576 -0.825481
vn -0.084724 -0.537597 -0.838935
vn 0.040327 -0.536505 -0.842933
vn 0.040327 -0.536506 -0.842933
vn 0.040327 -0.536505 -0.842933
vn -0.126354 0.837690 0.531329
vn 0.057540 0.851411 0.521333
vn -0.051122 0.768541 0.637755
vn 0.209469 0.562355 0.799925
vn -0.032546 0.794575 0.606293
vn -0.343471 0.691432 0.635570
vn -0.027032 0.635783 0.771394
vn -0.248269 0.437327 0.864354
vn -0.003652 -0.546119 -0.837700
vn -0.089135 -0.550099 -0.830329
vn 0.216130 -0.502934 -0.836866
vn 0.267620 -0.480598 -0.835108
vn 0.216106 -0.658184 -0.721174
vn 0.176106 0.478929 0.860008
vn 0.259409 0.782719 0.565736
vn -0.180593 -0.544964 -0.818780
vn -0.191299 -0.540475 -0.819324
vn -0.088472 0.294726 0.951477
vn -0.177102 0.390860 0.903252
vn 0.180151 0.293377 0.938869
vn 0.325830 0.169622 0.930088
vn 0.397312 -0.003821 0.917675
vn 0.397313 -0.003821 0.917675
s 1
g pCube2
usemtl initialShadingGroup
f 2//1 9//2 14//3
f 14//3 9//2 1//4
s 2
f 8//5 7//6 13//7
f 16//8 17//9 7//6
f 17//9 13//7 7//6
s 3
f 16//10 7//11 15//12
f 15//12 7//11 12//13
f 3//14 1//15 10//16
f 10//16 1//15 9//17
s 2
f 3//18 4//19 1//20
f 1//20 4//19 14//21
f 4//19 2//22 14//21
s 3
f 11//23 5//24 10//16
f 10//16 5/8/24 3/5/14
s 2
f 6//25 4//19 5//26
f 5//26 4//19 3//18
s 3
f 7//11 5//24 12//13
f 12//13 5//24 11//23
s 2
f 7//6 8//5 5//26
f 5//26 8//5 6//25
s 3
f 10//16 9//17 4//27
f 4//27 9//17 2//28
f 6//29 11//23 4//27
f 4//27 11//23 10//16
f 12//13 11//23 8//30
f 8//30 11//23 6//29
f 8//30 13//31 12//13
f 15//12 12//13 17//32
f 17//32 12//13 13//31
